<?xml version="1.0" encoding="UTF-8"?>
<svg width="170px" height="74px" viewBox="0 0 170 74" version="1.1" xmlns="http://www.w3.org/2000/svg" xmlns:xlink="http://www.w3.org/1999/xlink">
    <!-- Generator: Sketch 52.2 (67145) - http://www.bohemiancoding.com/sketch -->
    <title>_2718518102016</title>
    <desc>Created with Sketch.</desc>
    <defs>
        <linearGradient x1="12.371134%" y1="17.0545215%" x2="87.628866%" y2="82.9728764%" id="linearGradient-1">
            <stop stop-color="#B2B3B3" offset="0%"></stop>
            <stop stop-color="#E5E4E5" offset="20%"></stop>
            <stop stop-color="#A3A3A4" offset="25.098%"></stop>
            <stop stop-color="#FEFEFE" offset="32.1569%"></stop>
            <stop stop-color="#A2A2A2" offset="50.1961%"></stop>
            <stop stop-color="#E1E2E2" offset="61.9608%"></stop>
            <stop stop-color="#FEFEFE" offset="67.8431%"></stop>
            <stop stop-color="#696868" offset="92.1569%"></stop>
            <stop stop-color="#FEFEFE" offset="100%"></stop>
        </linearGradient>
        <linearGradient x1="14.0812614%" y1="84.8221181%" x2="85.9187386%" y2="15.1778819%" id="linearGradient-2">
            <stop stop-color="#7A7A7A" offset="0%"></stop>
            <stop stop-color="#E5E4E5" offset="20%"></stop>
            <stop stop-color="#A3A3A4" offset="25.098%"></stop>
            <stop stop-color="#FEFEFE" offset="32.1569%"></stop>
            <stop stop-color="#A2A2A2" offset="50.1961%"></stop>
            <stop stop-color="#E1E2E2" offset="61.9608%"></stop>
            <stop stop-color="#FEFEFE" offset="67.8431%"></stop>
            <stop stop-color="#696868" offset="92.1569%"></stop>
            <stop stop-color="#2B2A29" offset="100%"></stop>
        </linearGradient>
        <linearGradient x1="77.8720123%" y1="91.509434%" x2="22.11835%" y2="8.49056604%" id="linearGradient-3">
            <stop stop-color="#24DEFF" offset="0%"></stop>
            <stop stop-color="#EBFDFF" offset="100%"></stop>
        </linearGradient>
        <linearGradient x1="47.9552053%" y1="99.9521621%" x2="51.7516928%" y2="0.0707625926%" id="linearGradient-4">
            <stop stop-color="#24DEFF" offset="0%"></stop>
            <stop stop-color="#EBFDFF" offset="100%"></stop>
        </linearGradient>
        <linearGradient x1="87.2410138%" y1="16.6586074%" x2="12.7686229%" y2="83.3655706%" id="linearGradient-5">
            <stop stop-color="#ED0008" offset="0%"></stop>
            <stop stop-color="#FF1E00" offset="100%"></stop>
        </linearGradient>
        <linearGradient x1="71.5091753%" y1="100.637129%" x2="28.6093626%" y2="-0.717525543%" id="linearGradient-6">
            <stop stop-color="#ED0008" offset="0%"></stop>
            <stop stop-color="#FF1E00" offset="100%"></stop>
        </linearGradient>
    </defs>
    <g id="Page-1" stroke="none" stroke-width="1" fill="none" fill-rule="evenodd">
        <g id="рай" transform="translate(-17.000000, -24.000000)">
            <g id="_2718518102016" transform="translate(17.460000, 24.620000)">
                <g id="Group">
                    <path d="M84.39,0.02 C98.77,0.03 112.31,1.59 124.16,4.34 C123.94,4.6 123.74,4.88 123.58,5.19 C122.77,6.71 121.12,7.5 119.43,7.17 C107.96,4.94 96.09,3.98 84.41,3.98 C72.55,3.98 60.49,4.98 48.85,7.28 C47.19,7.61 45.58,6.88 44.74,5.41 C44.54,5.06 44.29,4.74 44.01,4.44 C56.01,1.61 69.76,1.12550594e-13 84.39,0.01 L84.39,0.02 Z M138.67,8.61 C157.08,15.32 168.78,25.36 168.78,36.59 C168.78,47.52 157.68,57.32 140.1,64.01 C140.44,63.46 140.63,62.86 140.69,62.16 C140.81,60.69 141.68,59.49 143.04,58.92 C148.39,56.66 154.05,53.61 158.29,49.57 C158.31,49.55 158.33,49.54 158.34,49.52 C162.09,46.08 165.06,41.77 165.06,36.51 C165.06,29.74 160.11,24.49 154.95,20.76 C154.92,20.74 154.9,20.73 154.9,20.72 C154.86,20.69 154.82,20.66 154.78,20.63 C150.78,17.77 146.24,15.47 141.69,13.62 C140.47,13.12 139.65,12.15 139.37,10.86 C139.19,10.06 138.96,9.32 138.66,8.62 L138.67,8.61 Z M133.67,66.22 C119.8,70.54 102.79,73.08 84.39,73.07 C69.5,73.06 55.51,71.39 43.36,68.45 C44.23,68.28 45.01,67.83 45.58,67.15 C46.51,66.04 47.87,65.55 49.29,65.83 C60.79,68.07 72.69,69.04 84.4,69.03 C95.69,69.03 107.13,68.13 118.24,66.06 C119.52,65.82 120.73,66.19 121.66,67.11 C122.17,67.61 122.81,67.95 123.5,68.12 C125.29,68.54 127.11,68.04 128.48,66.83 C129.48,65.95 130.75,65.65 132.04,65.99 C132.55,66.13 133.1,66.21 133.65,66.23 L133.67,66.22 Z M26.07,62.91 C10.01,56.25 0,46.88 0,36.5 C0,27.82 6.99,19.86 18.67,13.6 C18.64,14 18.65,14.4 18.69,14.81 C18.7,14.86 18.7,14.91 18.71,14.96 C18.9,16.5 18.22,17.92 16.9,18.73 C10.65,22.58 3.75,28.54 3.75,36.52 C3.75,46.8 15.24,53.98 23.48,57.82 C24.85,58.46 25.68,59.73 25.71,61.24 C25.72,61.48 25.74,61.71 25.78,61.94 C25.83,62.22 25.91,62.49 26,62.76 C26.02,62.81 26.04,62.86 26.05,62.92 L26.07,62.91 Z" id="Shape" fill="url(#linearGradient-1)"></path>
                    <path d="M84.39,1.96 C73.53,1.95 62.58,2.83 51.89,4.78 C49.68,5.18 47.47,5.63 45.26,6.14 C46.16,7.12 47.49,7.56 48.85,7.29 C60.49,4.98 72.55,3.99 84.41,3.99 C96.09,3.99 107.96,4.95 119.43,7.18 C120.77,7.44 122.08,7.01 122.97,6.06 C120.94,5.6 118.91,5.19 116.89,4.82 C106.2,2.86 95.25,1.97 84.39,1.97 L84.39,1.96 Z M18.73,15.79 C10.53,20.36 1.94,27.38 1.94,36.51 C1.94,48.26 16.19,56.54 25.49,60.57 L25.66,60.64 C25.45,59.4 24.67,58.37 23.48,57.82 C15.23,53.97 3.75,46.8 3.75,36.52 C3.75,28.54 10.65,22.58 16.9,18.73 C17.98,18.07 18.63,16.99 18.73,15.79 Z M45.7,67.02 C47.76,67.49 49.83,67.91 51.89,68.29 C62.58,70.25 73.53,71.14 84.39,71.14 C95.25,71.15 106.2,70.27 116.89,68.32 C118.56,68.02 120.23,67.68 121.9,67.32 C121.82,67.25 121.74,67.18 121.67,67.11 C120.74,66.2 119.53,65.83 118.25,66.06 C107.14,68.13 95.7,69.03 84.41,69.03 C72.7,69.03 60.8,68.07 49.3,65.83 C47.93,65.56 46.62,66 45.7,67.02 Z M140.76,61.68 C141.61,61.34 142.45,60.99 143.29,60.63 C152.59,56.61 166.84,48.34 166.84,36.59 C166.84,24.84 152.59,16.56 143.29,12.53 C142.01,11.97 140.71,11.45 139.4,10.94 C139.7,12.18 140.51,13.12 141.7,13.61 C146.25,15.46 150.79,17.76 154.79,20.62 C154.83,20.65 154.87,20.68 154.91,20.71 C154.91,20.71 154.93,20.73 154.96,20.75 C160.12,24.48 165.07,29.73 165.07,36.5 C165.07,41.76 162.1,46.07 158.35,49.51 C158.33,49.53 158.31,49.54 158.3,49.56 C154.06,53.6 148.41,56.66 143.05,58.91 C141.84,59.42 141.02,60.43 140.76,61.68 Z" id="Shape" fill="url(#linearGradient-2)"></path>
                </g>
                <g id="Group" transform="translate(8.090000, 4.680000)">
                    <path d="M46.29,39.69 L46.29,36.94 L46.49,36.94 C53.18,36.94 58,32.48 58,25.79 C58,19.1 52.61,13.67 45.92,13.67 C44.07,13.67 42.22,14.14 40.61,14.89 C40.49,14.81 40.41,14.77 40.3,14.77 C39.91,14.77 39.67,15.01 39.67,15.36 C39.67,15.71 39.91,15.95 40.3,15.95 C40.61,15.95 40.85,15.71 40.85,15.36 L40.85,15.32 C42.38,14.57 44.18,14.69 45.95,14.82 C50.92,15.2 55.79,19.26 55.79,25.71 C55.79,32.08 52.86,34.38 46.49,34.38 L46.29,34.38 L46.3,17.28 L42.39,17.28 L42.39,39.05 C42.38,39.24 42.36,39.43 42.34,39.62 C41.51,39.97 40.73,40.56 40.61,40.8 C40.61,40.8 40.65,41.39 40.69,41.67 L43.33,41.59 L45.26,41.59 L47.9,41.67 C47.9,41.39 47.98,40.8 47.98,40.8 C47.86,40.57 47.13,39.99 46.31,39.67 L46.29,39.69 Z M87.98,41.17 C86.84,40.38 85.66,39.87 84.56,38.97 C81.81,37.04 79.8,34.49 78.07,31.81 C77.2,30.35 75.71,26.46 74.73,25.91 C74.49,25.67 74.18,25.6 73.83,25.6 C73.44,25.68 72.96,25.72 72.96,26.19 L72.96,26.43 C73.75,29.54 75.08,32.06 76.82,34.49 C78.63,37.05 81.03,39.41 83.9,40.82 C84.96,41.37 86.06,41.65 87.13,41.65 C87.44,41.65 88.15,41.53 88.15,41.37 C88.15,41.33 88.11,41.21 87.99,41.17 L87.98,41.17 Z M72.28,35.31 C71.02,34.8 69.72,34.37 68.39,34.01 C69.65,32.08 70.71,30.04 71.65,27.95 C73.38,24.02 74.8,19.85 75.66,15.6 C75.74,15.21 75.78,14.81 75.82,14.38 C75.86,13.95 74.52,13.91 74.36,13.91 C74.08,13.91 72.94,13.91 72.94,14.38 C72.43,18.04 71.25,21.58 69.95,24.92 C68.85,27.79 67.47,30.82 65.78,33.54 C64.56,33.34 63.26,33.19 61.37,33.19 C56.24,33.19 54.98,33.94 61.25,33.94 C62.67,33.94 63.73,34.1 65.14,34.41 C64.08,36.14 62.86,37.56 61.6,38.89 C60.85,39.64 60.07,40.35 59.2,40.94 C59.32,41.33 60.03,41.41 60.38,41.45 C61.01,41.45 61.6,41.45 62.03,41.17 C64.15,39.75 66.08,37.43 67.66,35.15 C71.12,36.45 73.8,38.34 76.43,40.58 C77.18,41.17 77.96,41.68 78.87,41.68 C79.11,41.68 79.34,41.64 79.54,41.64 C79.7,41.64 80.68,41.6 80.6,41.33 C80.29,39.09 74.15,36.1 72.26,35.31 L72.28,35.31 Z M106.88,16.83 C106.88,17.07 106.88,17.3 106.88,17.54 C101.53,20.02 98.3,24.82 96.1,29.93 C96.1,29.73 96.1,29.5 96.1,29.34 C96.1,24.93 96.22,21.04 96.22,16.79 C96.26,16.55 96.26,16.28 96.26,16.04 C97.13,15.69 97.87,15.14 97.99,14.9 C97.99,14.9 97.91,14.31 97.91,14.03 L95.31,14.11 C94.88,14.07 94.21,14.07 93.66,14.11 L90.71,14.03 C90.67,14.31 90.63,14.9 90.63,14.9 C90.71,15.1 91.38,15.61 92.16,15.96 C92.16,16.27 92.2,16.55 92.2,16.83 C92.2,23.83 92.16,31.11 92.04,38.11 C92.04,38.62 92,39.09 91.96,39.57 C91.13,39.92 90.35,40.51 90.23,40.75 C90.23,40.75 90.27,41.34 90.31,41.62 L92.95,41.54 C93.58,41.54 94.21,41.54 94.88,41.54 L97.52,41.62 C97.52,41.34 97.6,40.75 97.6,40.75 C97.48,40.51 96.73,39.92 95.91,39.61 C95.87,39.3 95.87,38.98 95.83,38.63 C95.83,38.32 95.79,37.96 95.79,37.69 C97.91,28.17 103.07,21.88 106.88,20.07 C106.88,26.05 106.88,32.23 106.76,38.13 C106.76,38.68 106.76,39.15 106.76,39.66 C105.97,40.01 105.26,40.53 105.19,40.76 C105.19,40.76 105.23,41.35 105.27,41.63 L107.91,41.55 C108.54,41.55 109.17,41.55 109.84,41.55 L112.48,41.63 C112.48,41.35 112.56,40.76 112.56,40.76 C112.44,40.52 111.69,39.93 110.87,39.62 C110.75,36.2 110.75,32.66 110.83,29.35 C110.83,24.94 110.99,21.05 110.99,16.8 C110.99,16.56 111.03,16.29 111.03,16.01 C111.82,15.66 112.49,15.11 112.6,14.91 C112.6,14.91 112.52,14.32 112.52,14.04 L110,14.12 C109.53,14.08 108.86,14.08 108.31,14.12 L105.24,14.04 C105.2,14.32 105.16,14.91 105.16,14.91 C105.28,15.15 106.03,15.74 106.89,16.05 C106.89,16.33 106.89,16.6 106.89,16.84 L106.88,16.83 Z M95.31,8.8 C96.49,9.82 98.14,11.08 99.01,11.67 C99.64,12.1 100.78,13.05 101.84,13.05 C102.94,13.05 104.08,12.11 104.71,11.67 C105.61,11.08 107.23,9.82 108.41,8.8 C107.47,7.78 107.07,7.27 106.72,6.95 C106.33,6.56 106.25,6.95 105.46,7.93 C105.22,8.17 103.26,10.92 101.84,10.88 C100.46,10.92 98.42,8.17 98.22,7.89 C97.39,6.91 97.35,6.55 97.04,6.95 C96.61,7.26 96.17,7.85 95.31,8.8 Z" id="Shape" fill="#394850" fill-rule="nonzero"></path>
                    <path d="M76.55,3.37 C86.13,3.37 95.3,4.03 103.76,5.23 C94.81,4.4 84.99,4.26 74.72,4.96 C59,6.03 44.57,8.89 32.93,12.88 L33.03,12.52 L33.04,12.44 C33.05,12.36 33.06,12.28 33.07,12.2 C33.09,12.16 33.1,12.12 33.12,12.08 C33.31,11.61 33.47,11.28 33.58,10.77 C33.6,10.67 33.62,10.57 33.64,10.48 L34.72,9.52 C34.67,8.86 34.41,8.27 34.32,8.11 C46.42,5.12 60.94,3.38 76.55,3.38 L76.55,3.37 Z M17.68,19.63 C8.87,24.76 3.84,30.73 4.26,36.81 C4.45,39.64 5.82,42.29 8.17,44.71 C2.95,40.85 0,36.5 0,31.89 C0,25.6 5.47,19.79 14.72,15.08 L15.59,16.31 L16.09,16.41 C16.18,16.43 16.26,16.44 16.35,16.45 C16.56,16.92 16.77,17.2 17.1,17.6 C17.11,17.84 17.1,18.08 17.17,18.35 L17.2,18.47 L17.67,19.5 L17.7,19.65 L17.68,19.63 Z" id="Shape" fill="url(#linearGradient-3)"></path>
                    <path d="M33.37,9.09 C31.93,8.78 32.77,8.5 32.33,10.48 C32.22,10.96 32.1,11.15 31.93,11.59 C31.76,12.03 31.84,11.83 31.77,12.23 L31.58,12.88 C31.42,12.42 31.56,12.21 31.17,12.02 C30.53,12.72 31.09,13.17 31.09,14.15 L30.94,13.98 C30.92,13.96 30.89,13.92 30.87,13.9 L30.5,13.59 C28.39,16.53 35.59,17.88 32.99,21.66 C32.08,22.98 31.06,22.21 30.02,22.08 C30.47,22.7 30.82,22.62 31.21,23.12 C31.02,23.81 30.69,23.71 30.58,24.54 C30.5,25.17 30.67,25.99 30.36,26.51 C29.97,26.31 30.2,26.59 29.96,25.99 L29.22,23.71 C28.83,22.73 28.29,22.06 28.26,20.8 C28.22,19.5 28.21,18.14 28.22,16.84 C28.23,15.34 28.45,14.41 27.71,13.38 C27.67,13.65 27.87,15.47 27.85,16.15 C27.76,20.68 27.47,20.17 28.92,24.15 C29.47,25.65 31.11,29.41 31.24,30.91 C31.28,31.41 31.25,31.84 31.36,32.34 C31.49,32.95 31.73,33.11 31.46,33.64 C30.93,33.38 30.65,32.91 30.55,32.31 C29.9,32.67 30.46,32.5 30,32.9 C29.93,30.77 29.73,31.42 29.57,30.18 C29.35,28.6 29.57,28.95 28.77,27.71 C28.14,26.72 27.11,24.35 25.99,24.03 C26.22,24.53 26.88,25.23 27.3,25.91 C29.47,29.45 28.92,29.36 29.66,33.09 C29.89,33.17 30.31,33.2 30.47,33.26 C30.86,33.39 31.92,34.37 32.14,34.83 C33.11,36.83 33.91,38.69 34.58,40.86 C35.09,42.5 34.95,42.77 34.31,44.24 C33.66,45.73 33.88,46.19 33.83,47.93 C33.77,50.01 33.57,52.12 33.71,54.21 C33.76,54.93 33.95,55.5 33.97,56.25 C33.99,56.97 33.83,57.8 33.87,58.44 C33.92,59.27 34.37,59.39 34.29,60.18 C33.52,60.26 32.7,59.64 32.41,59.25 C31.95,58.62 32.25,57.72 31.85,57 C31.53,57.09 31.44,57.44 31.18,57.73 C31.16,57.75 31.12,57.79 31.09,57.82 C31.23,54.22 31.39,55.6 31.73,54.76 L30.95,49.17 C30.82,47.78 30.62,45.92 31.1,44.57 C31.37,43.81 31.37,44.23 31.82,43.71 C31.44,41.13 28.62,39.02 27.45,36.94 C27.18,36.46 27.02,35.81 26.72,35.35 C26.37,34.82 25.99,34.77 25.25,34.51 C24.47,34.24 24.36,33.97 23.85,33.65 C23.99,34.17 24.28,34.35 24.73,34.61 C25.31,34.95 25.49,35.1 25.88,35.5 C26.75,36.38 27.31,36.78 26.8,38.37 C26.27,40.01 25.48,41.17 24.98,42.68 C24.7,43.53 24.74,43.53 24.29,44.1 C24.32,47.07 23.49,49.04 23.38,52.01 C23.27,54.92 23.04,54.55 24.06,55.86 C24.7,56.69 24.52,57.72 25.03,58.17 C25.52,58.61 25.47,58.23 25.65,58.83 C25.09,59.1 24.15,59.05 23.5,58.88 C22.33,58.57 23,58.1 22.33,57.78 C21.95,58.32 22.34,58.64 21.78,59 C21.5,58.5 21.72,58.38 21.6,57.78 C21.52,57.36 21.27,57.19 21.18,56.71 C21.03,55.92 22.58,54.59 21.34,52.17 C20.61,50.74 20.82,48.57 21.02,47.05 C21.18,45.85 20.4,45.39 21.04,44.6 C21.59,43.91 21.4,43.94 21.42,42.06 C21.44,40.01 21.51,37.77 22.43,35.89 C22.6,35.55 22.96,35.05 23,34.92 C23.39,33.75 21.81,31.92 23,29.91 C23.98,28.26 25.6,27.34 25.81,26.85 C26.06,26.26 26,24.77 25.77,24.18 L25.11,22.65 C24.92,22.02 25.21,22.42 24.79,22.1 L24.36,22.67 C23.43,23.75 23.75,22.72 24.13,24.63 C23.76,24.52 23.54,24.39 23.38,24.1 L23.08,23.31 C23.07,23.29 23.05,23.24 23.03,23.21 C22.2,24.64 24.45,25.06 23.3,26.12 L23.04,25.4 C22.73,24.45 22.04,24.55 21.99,23.31 C21.39,23.35 21.49,23.48 21.16,23.24 C21.79,22.74 22.75,22.19 22.11,21.05 C21.2,21.18 21.97,21.32 21.12,21.5 C20.72,21.19 20.7,20.92 20.23,20.58 C20.12,20.5 19.83,20.37 19.72,20.27 C19.19,19.79 19.66,20.17 19.42,19.6 C19.13,18.92 19.51,19.67 19.04,19.17 C18.83,18.95 19.02,19.23 18.88,18.94 L18.46,18.01 C18.41,17.81 18.44,17.38 18.4,17.09 C18.17,16.68 17.85,16.62 17.48,15.69 C17.46,15.65 17.43,15.52 17.41,15.49 C17.21,15.12 16.9,15.23 16.39,15.13 L15.33,13.63 C15.21,13.43 15.03,13.32 14.88,13.15 C14.84,12.8 14.91,12.41 14.83,12.08 C14.65,11.37 14.38,11.96 14.1,9.55 C13.9,7.87 15.33,8.03 16.53,8.46 C17.61,8.85 18.62,9.31 19.62,9.75 C20.09,9.96 21.88,10.88 22.38,10.89 C22.41,10.89 22.45,10.88 22.47,10.88 C22.49,10.88 22.54,10.86 22.56,10.86 C22.84,10.82 22.98,8.88 23.1,8.44 C23.66,6.33 24.56,4 27.2,3.68 C27.27,3.67 27.33,3.66 27.4,3.66 C28.04,3.97 28.8,4.23 29.68,4.4 L29.69,4.4 C30.08,4.47 30.67,4.54 31.3,4.54 C31.44,4.65 31.57,4.77 31.7,4.9 C32.19,5.39 32.64,5.73 32.81,6.65 C32.9,7.13 32.82,7.65 32.91,8.06 C33.01,8.51 33.22,8.51 33.42,9.08 L33.37,9.09 Z" id="Path" fill="url(#linearGradient-4)"></path>
                    <path d="M144.94,19.06 C150.16,22.92 153.11,27.27 153.11,31.88 C153.11,39.82 144.39,47 130.33,52.17 C130.36,51.84 130.44,51.54 130.57,51.17 C130.91,50.23 131.17,49.54 131.25,48.51 C131.28,48.13 131.27,47.75 131.25,47.38 C131.23,47.07 131.19,46.74 131.15,46.4 C142.59,40.81 149.33,33.94 148.86,26.94 C148.67,24.11 147.3,21.46 144.95,19.04 L144.94,19.06 Z M125.52,53.8 C124.05,54.26 122.53,54.69 120.97,55.11 L120.93,54.93 C120.82,54.48 120.66,54.2 120.48,53.8 C120.45,53.73 120.44,53.7 120.44,53.62 C120.48,53.05 120.56,52.48 120.64,51.91 C120.7,51.49 120.77,51.08 120.84,50.66 C122.63,50.03 124.36,49.38 126.01,48.71 C126.03,48.84 126.04,48.97 126.05,49.1 C126.14,50 126.19,50.9 126.23,51.81 C126.24,52.03 126.27,52.44 126.25,52.69 C126.13,52.88 125.96,53.08 125.84,53.26 C125.71,53.45 125.61,53.63 125.52,53.8 Z M115.53,56.43 C104.11,58.95 90.79,60.4 76.55,60.4 C66.97,60.4 57.8,59.74 49.34,58.54 C58.29,59.38 68.11,59.51 78.38,58.81 C92.24,57.86 105.09,55.53 115.92,52.26 L115.91,52.44 C115.85,53.13 115.78,53.89 115.62,54.56 C115.46,55.21 115.48,55.81 115.53,56.42 L115.53,56.43 Z" id="Shape" fill="url(#linearGradient-5)"></path>
                    <path d="M129.72,11.6 C129.25,11.95 128.84,11.58 129.29,13.75 C129.46,14.53 129.75,14.3 129.88,15.3 L129.73,15.13 C129.45,14.79 129.57,14.77 129.18,14.58 C129.15,15.1 129.06,15.93 129.14,16.45 C129.28,17.31 129.72,17.09 129.91,17.86 C129.43,17.84 129.94,17.87 129.45,17.74 C129.39,17.72 129.37,17.69 129.17,17.67 C128.98,17.66 128.98,17.67 128.9,17.7 C128.64,18.97 130.11,18.32 129.99,19.96 C129.67,19.83 129.69,19.72 129.47,19.45 C129.08,18.96 129.29,19.06 128.75,18.95 C128.65,20.19 128.86,20.89 129.71,21.72 L128.95,21.93 L128.99,22.83 C127.96,23.19 128.28,23.27 127.74,23.89 L127.68,23.05 L128.32,22.6 L128.15,21.75 C127.56,22.09 127.97,22.81 126.98,23.13 C127.14,22.45 127.39,22.45 127.43,21.68 C127.04,21.19 127.2,21.57 126.88,21.2 C126.63,20.91 126.76,20.84 126.42,20.49 C126.29,20.62 126.34,20.55 126.22,20.73 C126.17,20.8 126.11,20.91 126.07,20.99 C125.74,21.62 125.5,22.19 125.38,22.98 C125.19,24.26 125.17,25.18 125.98,25.91 C126.98,26.8 128.67,28.6 129.54,29.84 C131.19,32.17 130.9,32.99 131.3,35.91 C132.04,41.24 138.84,39.54 135.96,33.4 C134.19,29.63 130.1,28.61 130.78,23.69 C131.05,21.71 131.74,20.02 133.3,18.87 C133.27,18.85 133.21,18.79 133.19,18.82 L132.45,18.65 C132.6,17.87 134.62,16.59 136.9,16.78 C136.86,16.84 135.03,18.06 133.91,20.7 L133.82,19.44 C131.76,20.02 130.72,25.15 132.86,27.96 C134.52,30.15 140.91,35.87 136.89,39.38 C135.76,40.36 133.83,41.01 132.27,40.26 C129.23,38.8 130.83,32.6 128.51,31.34 C128.42,31.48 128.44,31.44 128.36,31.66 C127.86,32.93 127.91,32.94 128.48,34.27 C129.7,37.06 129.08,38.54 129.35,41.31 C129.52,42.97 129.87,42.73 129.74,44.68 C129.67,45.86 130.03,47.16 129.94,48.43 C129.8,50.41 128.82,50.95 129.04,53.01 C129.13,53.83 129.45,53.93 129.56,54.53 C129.73,55.41 129.23,55.22 129.06,55.88 C128.86,56.64 129.33,57.16 128.9,57.64 C128.43,57.22 128.82,56.98 128.5,56.31 C127.86,56.67 128.18,57.39 127.48,57.67 C126.82,57.93 125.78,57.92 125.15,57.73 C125.11,56.7 125.89,57.2 126.17,56.07 C126.4,55.15 126.4,54.71 126.89,53.98 C127.54,53.01 127.55,53.37 127.5,51.77 C127.47,50.82 127.42,49.93 127.32,48.97 C127.13,47.12 126.49,44.73 126.6,43.02 C126.68,41.8 126.15,42.35 125.94,41.1 C125.51,38.48 123.42,36.52 124.34,34.79 C125.18,33.19 126.18,33.46 126.98,32.16 C126.04,32.44 125.04,33.29 124.52,34.05 C123.55,35.46 119.52,41.3 119.36,42.11 C119.22,42.84 120.01,43.8 119.97,46.06 C119.91,49.34 119.31,51.16 119.13,53.53 C119.07,54.26 119.48,54.54 119.65,55.24 C119.77,55.73 119.92,56.39 119.86,56.9 L119.75,57.26 C119.74,57.29 119.72,57.34 119.69,57.37 C119.52,56.91 119.54,56.51 119.05,56.33 C118.5,56.87 119.11,57.74 118.62,58.74 C118.28,59.42 117.56,60.12 116.51,59.88 C116.5,59.25 116.96,58.96 116.9,57.64 C116.86,56.73 116.65,55.76 116.86,54.89 C117.41,52.59 117.48,46.64 116.99,44.27 C116.6,42.37 115.66,42.9 116.74,39.46 C117.19,38.01 117.92,36.85 118.36,35.42 C119.13,32.89 118.59,33.63 119.93,32.73 C120.37,32.44 120.29,32.25 120.73,31.98 C121.19,31.7 121.31,31.84 121.48,31.33 C121.62,30.9 121.54,30.57 121.68,30.09 C121.8,29.7 121.94,29.47 122.02,29.09 C122.14,28.54 122.02,28.28 122.1,27.76 C122.26,26.75 123.67,24.96 124.06,23.81 C123.62,24.15 122.19,26.38 121.91,26.96 C121.54,27.74 121.43,30.2 121.05,31.2 C120.78,31.29 121.08,31.2 120.59,30.98 C120.49,31.81 120.36,32.22 119.42,32.37 C119.43,31.61 119.61,31.75 119.76,31.21 C120.01,30.28 119.38,30.86 120.54,27.37 C121.3,25.08 122.05,22.69 123.07,20.62 C123.77,19.2 123.03,14.68 123.3,13.41 C123.42,12.84 123.65,12.72 123.63,12.1 C122.63,12.73 123.02,18.2 123.05,19.19 C123.07,20.15 121.95,22.43 121.5,23.68 C121.31,24.2 121.2,24.73 120.77,25.04 C120.69,24.35 120.83,23.77 120.66,23.09 C120.49,22.43 120.15,22.22 120.07,21.46 C120.6,20.98 120.98,21.29 121.17,20.57 C120.15,20.93 119.13,21.29 118.42,20.48 C117.86,19.85 117.42,18.53 117.86,17.64 C118.17,17.01 119.15,16.22 119.68,15.67 C120.04,15.3 120.24,15.14 120.58,14.73 C121.22,13.96 120.7,14.24 120.5,13.67 C121.34,13.25 121.49,12.87 121,11.84 C120.64,12.01 120.47,12.35 120.07,12.64 C120.18,11.71 120.51,11.64 120.38,10.57 C120,10.78 119.97,11.11 119.66,11.41 C119.44,9.53 119.89,10.59 119.07,9.34 C118.53,8.52 119.22,8.23 119.02,7.27 L117.91,7.68 C118.05,7.27 118.44,6.97 118.64,6.52 C118.86,6.01 118.61,5.51 118.7,4.9 C118.81,4.1 119.11,4.04 119.18,3.88 C119.3,3.57 118.48,2.52 119.59,1.72 C119.2,2.45 119.5,3.12 119.9,3.3 C120.49,3.04 120.47,2.73 121.17,2.46 C121.91,2.18 122.57,2.31 123.34,2.16 C123.61,1.23 123.1,0.31 122.53,0 C124.73,0.08 124.75,1.54 124.68,2.35 C125.25,2.81 125.39,2.63 125.98,3.27 C127.39,4.79 127.86,6.36 128.09,8.56 C128.39,11.42 128.62,10.03 129.71,11.63 L129.72,11.6 Z" id="Path" fill="url(#linearGradient-6)"></path>
                    <path d="M61.15,51 C60.98,51.82 60.63,52.45 60.11,52.89 C59.59,53.32 58.91,53.54 58.09,53.54 C57.05,53.54 56.2,53.2 55.54,52.51 C54.88,51.82 54.55,50.95 54.55,49.88 C54.55,48.82 54.89,47.95 55.56,47.27 C56.23,46.59 57.1,46.25 58.16,46.25 C58.51,46.25 58.83,46.29 59.12,46.38 C59.41,46.47 59.69,46.6 59.95,46.79 L60.49,46.29 L60.89,46.29 L61.03,49.09 L60.54,49.13 C60.33,48.34 60.04,47.75 59.67,47.34 C59.29,46.94 58.84,46.74 58.3,46.74 C57.67,46.74 57.21,46.98 56.92,47.47 C56.63,47.96 56.49,48.74 56.49,49.82 C56.49,50.93 56.64,51.72 56.94,52.19 C57.24,52.66 57.74,52.89 58.43,52.89 C58.97,52.89 59.43,52.71 59.8,52.36 C60.18,52.01 60.45,51.49 60.63,50.82 L61.15,50.99 L61.15,51 Z M67.32,53.36 L67.32,52.86 L67.79,52.83 C67.89,52.83 67.96,52.81 68,52.78 C68.04,52.75 68.06,52.69 68.06,52.61 C68.06,52.58 68.05,52.55 68.04,52.5 C68.03,52.46 68.01,52.4 67.99,52.34 L67.56,51.26 L65.09,51.26 L64.87,51.77 C64.84,51.84 64.81,51.92 64.79,52.02 C64.77,52.11 64.76,52.19 64.76,52.27 C64.76,52.48 64.83,52.62 64.98,52.71 C65.13,52.8 65.39,52.85 65.76,52.86 L65.76,53.36 L63.03,53.36 L63.03,52.86 C63.3,52.81 63.53,52.69 63.71,52.5 C63.89,52.31 64.08,52 64.27,51.56 L66.53,46.3 L67.25,46.3 L69.9,52.45 C69.97,52.6 70.04,52.7 70.13,52.76 C70.22,52.81 70.35,52.85 70.54,52.86 L70.54,53.36 L67.3,53.36 L67.32,53.36 Z M66.37,48.32 L65.36,50.66 L67.32,50.66 L66.37,48.32 Z M77.67,48 C77.71,47.92 77.74,47.83 77.76,47.75 C77.78,47.66 77.79,47.59 77.79,47.52 C77.79,47.32 77.72,47.17 77.58,47.08 C77.44,46.99 77.19,46.94 76.84,46.92 L76.84,46.41 L79.64,46.41 L79.64,46.9 C79.38,46.91 79.14,47.01 78.93,47.2 C78.72,47.39 78.53,47.67 78.35,48.06 L77.09,50.86 C76.57,52.01 76.13,52.74 75.76,53.07 C75.39,53.4 74.92,53.56 74.35,53.56 C73.86,53.56 73.46,53.4 73.15,53.08 C72.84,52.76 72.69,52.35 72.69,51.83 C72.69,51.49 72.78,51.21 72.96,51 C73.14,50.79 73.38,50.68 73.68,50.68 C73.9,50.68 74.09,50.76 74.24,50.92 C74.39,51.08 74.47,51.27 74.47,51.5 C74.47,51.76 74.36,51.97 74.13,52.14 C73.9,52.31 73.79,52.44 73.79,52.54 C73.79,52.67 73.86,52.79 73.99,52.88 C74.12,52.97 74.29,53.02 74.49,53.02 C74.79,53.02 75.05,52.92 75.27,52.71 C75.5,52.51 75.71,52.19 75.9,51.75 L75.62,51.75 L73.11,47.34 C73.02,47.18 72.93,47.08 72.82,47.02 C72.71,46.96 72.58,46.93 72.42,46.93 C72.42,46.93 72.41,46.93 72.4,46.93 C72.37,46.93 72.35,46.93 72.32,46.93 L72.32,46.43 L75.72,46.43 L75.72,46.93 L75.37,46.93 C75.21,46.93 75.1,46.95 75.03,46.99 C74.96,47.03 74.92,47.1 74.92,47.19 C74.92,47.22 74.93,47.26 74.94,47.3 C74.95,47.34 74.98,47.39 75.01,47.45 L76.58,50.4 L77.65,48.01 L77.67,48 Z M85.68,52.85 L86.16,52.85 C86.35,52.85 86.47,52.82 86.54,52.76 C86.61,52.7 86.64,52.56 86.64,52.35 L86.64,50.09 L84.09,50.09 L84.09,52.35 C84.09,52.56 84.12,52.7 84.19,52.76 C84.26,52.82 84.39,52.85 84.58,52.85 L85.06,52.85 L85.06,53.36 L81.39,53.36 L81.39,52.85 L81.88,52.85 C82.07,52.85 82.2,52.82 82.27,52.76 C82.34,52.7 82.37,52.56 82.37,52.35 L82.37,47.42 C82.37,47.21 82.34,47.07 82.27,47.01 C82.2,46.95 82.08,46.92 81.89,46.92 L81.4,46.92 L81.4,46.42 L85.07,46.42 L85.07,46.92 L84.59,46.92 C84.4,46.92 84.27,46.95 84.2,47.01 C84.13,47.07 84.1,47.21 84.1,47.42 L84.1,49.46 L86.65,49.46 L86.65,47.42 C86.65,47.21 86.62,47.07 86.55,47.01 C86.48,46.95 86.36,46.92 86.17,46.92 L85.69,46.92 L85.69,46.42 L89.36,46.42 L89.36,46.92 L88.87,46.92 C88.68,46.92 88.55,46.95 88.49,47.01 C88.42,47.07 88.39,47.21 88.39,47.43 L88.39,52.36 C88.39,52.58 88.42,52.71 88.49,52.77 C88.55,52.83 88.68,52.86 88.87,52.86 L89.36,52.86 L89.36,53.37 L85.69,53.37 L85.69,52.86 L85.68,52.85 Z M95.19,53.36 L95.19,52.86 L95.66,52.83 C95.76,52.83 95.83,52.81 95.87,52.78 C95.91,52.75 95.93,52.69 95.93,52.61 C95.93,52.58 95.92,52.55 95.91,52.5 C95.9,52.46 95.88,52.4 95.86,52.34 L95.43,51.26 L92.96,51.26 L92.74,51.77 C92.71,51.84 92.68,51.92 92.66,52.02 C92.64,52.11 92.63,52.19 92.63,52.27 C92.63,52.48 92.7,52.62 92.85,52.71 C93,52.8 93.26,52.85 93.63,52.86 L93.63,53.36 L90.9,53.36 L90.9,52.86 C91.17,52.81 91.4,52.69 91.58,52.5 C91.76,52.31 91.95,52 92.14,51.56 L94.4,46.3 L95.12,46.3 L97.77,52.45 C97.84,52.6 97.91,52.7 98,52.76 C98.09,52.81 98.22,52.85 98.41,52.86 L98.41,53.36 L95.17,53.36 L95.19,53.36 Z M94.24,48.32 L93.23,50.66 L95.19,50.66 L94.24,48.32 Z" id="Shape" fill="#394850" fill-rule="nonzero"></path>
                    <path d="M32.22,2.85 C31.86,1.83 28.39,1.37 27.17,1.6 C27.34,2.44 28.53,2.58 29.34,2.78 C30.14,2.97 31.48,3.22 32.22,2.85 Z M29.8,0.89 C30.97,1.11 32.79,1.8 33.09,2.58 C33.64,4.02 30.83,3.89 29.8,3.69 C25.64,2.89 25.01,-0.01 29.8,0.89 Z" id="Shape" fill="#FEFEFE"></path>
                </g>
            </g>
        </g>
    </g>
</svg>