<svg id="Слой_1" xmlns="http://www.w3.org/2000/svg" viewBox="0 0 300 300"><path d="M170.858 269.902l-.755-12.83 26.208.752v13.092c-8.487 0-16.916-.495-25.453-1.014zm101.134-8.153l1.059-11.252c3.182-1.289 6.404-2.04 9.481-3.524a149.172 149.172 0 0 1-.446 6.026c-.515 5.065-6.025 6.958-10.094 8.75zm-160.114-14.846c3.412 1.421 6.529 2.464 9.737 3.432l1.153 11.322c-1.995-.655-3.694-1.524-5.341-2.483-2.065-1.201-4.313-2.744-4.604-5.365-.242-2.187-.59-4.362-.945-6.906zm13.003 15.569l-1.081-11.618 18.582 3.624c.64 4.047.582 8.149 1.229 12.371-6.396-1.072-12.499-2.378-18.73-4.377zm126.281 4.437l1.105-12.273 18.564-3.731c-.141 3.939-.597 7.746-1.057 11.543-6.081 2.059-12.174 3.22-18.612 4.461zm-83.082-9.991c.34 4.278.608 8.486.685 12.848-7.797-.442-15.398-1.456-23.133-2.551l-1.082-12.483 23.53 2.186zm82.117-2.273l-1.083 12.589c-6.993.925-16.073 2.291-22.914 2.477l.52-12.82 23.477-2.246zm-224.343 9.547c1.172-5.76 3.541-10.949 6.572-16.028l18.361 4.927c.454 5.948-.691 11.549-2.199 17.077-1.502.059-20.428-4.902-22.734-5.976zm232.573-84.326l2.433-29.591c6.925-.992 13.685-1.983 20.617-3.652-.806 10.009-2.078 19.737-2.889 29.678l-20.161 3.565zm21.619 3.959l-5.986 57.916c1.292.22 6.878-1.739 9.976-3.432l7.968-58.531-11.958 4.047zM41.452 214.168c-4.716 10.456-7.362 21.124-8.537 32.315l18.519 4.942c5.158-10.28 7.455-21.092 8.636-32.321-6.26-1.685-12.343-3.4-18.618-4.936zm189.405-31.773l25.464-2.283 2.37-29.483-26.218 2.701-1.616 29.065zm-34.6-28.658v29.588l-30.254-.753-1.515-29.617 31.769.782zm34.024-.622l-1.72 29.441-29.853.804-.241-29.373 31.814-.872zm27.799 34.521c6.476-.942 12.904-1.453 19.376-3.203l-5.854 58.426-18.554 3.224 5.032-58.447zm-141.044-3.337l19.801 3.299 5.186 58.92c-6.646-.671-12.821-2.159-19.105-3.581l-5.882-58.638zm47.133 5.727l-24.878-2.1 4.716 58.853 23.577 2.097-3.415-58.85zm86.407 56.82l4.894-58.916-24.982 2.273-3.532 58.942 23.62-2.299zm-54.359 3.373l-26.297-.869-3.318-59.078 29.615.802v59.145zm28.638-.883l-26.35.915V190.98l29.798-.788-3.448 59.144zM56.398 46.197c-2.254.247-2.841-2.486-5.506-3.998-2.3-1.305-4.48-.95-6.507.273-2.034 1.228-2.834 3.282-2.525 5.642.417 3.183 1.518 6.06 4.025 8.251.509.445.982.977 1.323 1.556.554.941.007 1.886-1.078 1.949-.796.047-2.343-.399-3.204-.55-2.731-.478-4.669.902-5.294 3.61-.274 1.189-.061 2.255.297 3.356 1.171 3.607 3.414 6.127 7.145 7.202.802.231 1.704.321 2.283 1.114.008.971-.484 1.448-1.441 1.552-3.354.362-5.44 2.685-3.796 6.02 1.46 2.962 3.569 2.781 3.168 4.23-.274.99-1.153.814-1.865.78-.968-.046-1.81.282-2.62.715-.919.492-1.592 1.282-2.207 2.099-.766 1.017-1.672 1.323-2.809.781-.818-1.15-.127-2.247.045-3.336.566-3.585.123-7.007-1.98-10.002-1.387-1.975-3.9-3.274-6.965-1.997-2.599 1.083-3.998 3.085-4.362 5.846-.17 1.292-.317 2.59-1.129 3.736-1.752.165-2.251-.803-3.429-1.955-2.433-2.379-5.31-3.093-8.531-2.064-3.26 1.041-6.052 4.486-5.567 8.118.634 4.748 5.217 7.021 9.051 8.67.722.311 1.326.644 1.595 1.395-.431 1.1-.742 1.529-1.486 2.035-.33.224-.652.474-1.01.642-1.422.664-2.268 1.846-2.908 3.203-.727 1.541-.608 3.424.648 4.805 1.245 1.369 2.84 2.064 4.701 2.207 2.084.16 4.09-.059 6.002-.946.717-.333 1.412-.454 2 .224-.013.594-.135 1.193-.588 1.411-1.161.558-1.673 1.709-2.51 2.552-1.67 1.683-1.242 4.382.781 5.595 2.178 1.305 3.733.208 5.142.9-.011.221.05.454-.037.546-1.565 1.66-2.209 3.675-2.392 5.9-.046.559-.249 1.121-.468 1.646-.349.839-.72.935-1.633.728-.8-.181-1.251-.805-1.752-1.316-.973-.993-2.061-1.818-3.22-2.564-2.709-1.743-8.634-2.222-11.616 1.089-2.669 2.964-2.318 5.992-.077 9.038 2.114 2.874 5.976 5.173 9.134 6.837 1.865.982 1.872 2.221.114 3.326-.145.091-.306.155-.456.239-1.171.659-2.096 1.602-2.864 2.676-1.219 1.706-1.221 3.859.114 5.412 1.215 1.412 2.767 2.429 4.706 2.494 1.764.059 3.549.207 5.234-.638.698-.35 1.512-.466 2.254-.683.805.98.835 1.238-.018 1.962-1.956 1.661-4.263 3.867-2.978 6.639 1.146 2.472 3.758 2.042 6.235 2.042.138 1.152-.106 2.188.193 3.189.622 2.08 2.08 3.484 3.734 4.759 1.256.968 2.749 1.398 4.181 1.967.599.238 1.03.496.831 1.221-.564.508-1.233.56-1.934.601-1.536.09-3.074.203-4.416 1.106-1.463.985-2.015 2.375-1.447 4.01.358 1.032.952 1.958 1.865 2.61 1.515 1.081 3.132 1.874 5.068 1.837.724-.014 1.496.001 1.99.69-.114.922-.486 1.467-1.385 1.8-1.165.432-2.288 1-3.064 2.091-.932 1.31-.838 2.515.289 3.649 1.083 1.089 2.432 1.559 3.875 1.611 3.216.114 4.941 2.567 5.868 5.347 1.363 4.085.18 7.103.948 8.853l18.17 4.909c1.273-1.258 1.95-2.853 2.894-4.261 1.179-1.76 2.181-3.64 3.533-5.282 1.825-2.216 3.98-3.775 7.063-3.446.445.047.906-.056 1.359-.09 1.334-.504 1.177-2.236 2.282-2.848.906.243.867.897.846 1.54-.051 1.58.706 2.731 1.948 3.602 1.351.947 2.746.515 3.301-1.026.212-.589.425-1.191.375-1.843-.041-.532.11-.99.645-1.372 1.231.835.978 2.5 1.984 3.469 1.039 1.001 1.943 2.122 3.531 2.21 2.294-.955 2.832-1.748 2.797-4.136-.01-.684-.25-1.938.611-2.238.566-.124 3.441 1.85 6.189 2.194 1.922.241 3.814.137 5.07-1.69.302-.439.503-.948.757-1.436l5.233 37.491c2.206 1.603 4.059 2.336 10.036 4.031l-5.951-58.607c-4.11-.997-8.034-2.321-12.101-3.818.632 5.976 1.847 11.752 2.292 17.939-1.987-2.563-2.627-2.987-5.33-3.701-.747-.197-1.556-.233-2.151-.68.161-2.252 2.478-2.464 2.588-4.774.141-2.981-2.146-4.77-5.023-3.975-4.08 1.128-3.957 3.887-5.718 3.351-.91-.277-1.095-1.722.629-2.296 1.066-.355 1.861-1.111 2.545-1.953 1.013-1.247.972-3.143.023-4.442-3.312-4.534-6.99-2.423-5.221-5.581 2.724-.068 6.252 2.002 7.391 4.426.571 1.215 1.276 2.28 2.339 3.117 1.385 1.09 3.056 1.08 4.381-.053 2.129-1.821 1.137-4.172 1.686-5.7.395-1.099.349-1.115 1.744-1.019.576.693.976 1.508 1.393 2.326 1.222 2.4 3.063 4.142 5.71 4.833 2.926.763 5.336-1.376 5.341-3.965.001-.366-.138-.793.206-1.079 6.162 1.19 12.287 2.443 18.743 3.133l-1.376-16.353c.831-.074 1.437-.183 2.077.16l1.415 16.583c8.55.868 16.87 1.866 25.397 2.222-.451-9.951-.977-19.698-1.68-29.514-3.638-.495-7.194-.347-10.58-.934-1.091-2.352-2.632-4.046-4.749-5.239-3.297-1.859-6.739-1.95-10.27-.898-1.24.37-2.432.601-3.644-.041-.773-1.379-.259-2.672.381-3.786 1.555-2.704 1.371-5.342.065-8.024-.161-.331-.292-.629.094-.974 1.408.563 2.893.915 4.464.723 3.283-.402 3.318-4.136 1.334-6.209-.251-.262-.714-.416-.595-.948 3.818-.387 7.634-.799 11.456-1.146 1.249-.113 2.513-.198 3.745.286.656.257 1.357.199 1.991-.188 1.065-.65 2.267-.736 3.463-.802 9.007-.503 17.781-.942 26.821-1.01 13.549-.102 27.096-.158 40.635.633 3.772.22 7.545.409 11.318.638 5.722.348 11.424.869 17.119 1.488 3.976.432 7.954.883 11.908 1.476 2.2.33 4.438.539 6.587 1.015 4.908 1.087 10.496 2.434 15.17 4.114 2.842 1.021 9.212 3.889 5.963 7.75-1.332 1.583-3.689 2.494-5.535 3.315-1.819.809-3.767 1.254-5.617 1.976-.88 9.926-2.182 19.743-2.84 29.678 4.392-1.049 8.613-2.029 12.333-4.349 1.634-10.484 2.786-21.129 4.484-31.587.423-2.602-.984-4.053-3.051-5.431-3.683-2.456-7.88-3.666-12.073-4.83-2.964-.823-5.999-1.389-8.989-2.119-3.336-.815-6.751-1.15-10.125-1.733-2.807-.485-5.627-.931-8.457-1.243-3.928-.433-7.878-.671-11.808-1.092-4.767-.511-9.591-.516-14.275-1.802-2.722-.748-5.357-1.65-7.75-3.134-5.751-3.565-7.066-10.532-6.732-16.813.571-10.732 3.698-22.469 6-33.014.828-3.792 1.601-7.595 1.509-11.533-.291-12.504-9.995-20.626-21.967-21.552-10.309-.798-21.307 3.572-25.494 13.598-1.968 4.712-2.008 9.561-1.05 14.48 2.071 10.629 4.785 21.217 6.33 31.904.693 4.793 1.065 7.392.347 12.116-.748 4.924-2.895 8.948-7.496 11.415-4.229 2.268-8.796 3.143-13.484 3.618-.424.043-.91.224-1.359-.212.089-2.535-1.723-3.903-3.469-5.251-.153-.815.169-1.313.896-1.461.583-.119 1.088-.385 1.564-.688 1.918-1.22 1.815-3.796-.174-4.905-1.46-.814-2.979-.763-4.482-.21-.582.214-1.145.454-1.707.574-.541-.284-.729-.659-.454-1.16.192-.351.449-.665.67-1.001 1.055-1.603.175-3.482-1.715-3.637-1.938-.158-3.632.315-4.898 1.919-.229.29-.366.748-.863.747-.453-.564-.453-.564-.508-1.806-.064-1.425-.867-2.163-2.236-1.856-.953.214-1.917.428-2.459 1.552-.455.943-1.238 1.773-2.244 2.205-1.278-.411-1.259-.418-1.744-1.643-.691-1.745-1.855-2.869-3.867-2.827a42.88 42.88 0 0 1-1.72-.007c-.846-.015-1.573-.243-1.96-1.076.156-1.007.855-1.578 1.593-1.972 2.076-1.109 3.678-2.619 4.776-4.727.551-1.059 1.351-1.997 2.774-2.088.893.707 1.58 1.612 2.223 2.568.951 1.414 2.108 2.533 3.898 2.857 1.84.333 3.743-1.074 3.383-3.017-.128-.69-.344-1.473.193-2.117.702-.206 1.098.094 1.472.623.354.5.654 1.038 1.15 1.454 1.737 1.458 3.735 1.884 5.936 1.687 1.445-.129 2.447-.926 3.085-2.129.622-1.172-.069-2.211-.623-3.211-.162-.292-.453-.51-.636-.793-.414-.644-.486-1.273.212-1.871.869-.052 1.644.315 2.437.629 1.683.666 3.425.778 5.186.425 3.502-.704 4.294-3.535 3.281-5.888-1.087-2.524-3.244-2.316-5.129-3.648-.009-1.115.666-1.65 1.486-2.174 2.256-1.439 3.629-3.433 3.669-6.208.028-1.928-.967-3.354-2.117-4.567-1.89-1.023-3.578-.546-5.191.327-1.997 1.082-3.574 2.646-4.808 4.546-.379.584-.76 1.134-1.377 1.364-.937-.232-1.254-.908-1.497-1.623a7.58 7.58 0 0 0-1.139-2.107c-1.075-1.434-3.005-1.885-4.643-.428-3.009 2.677-1.281 6.019-1.786 7.596-1.12.17-1.178-.572-1.979-1.678-1.507-2.078-2.673-2.229-4.625-.671-.89 1.806-.843 3.566-.092 5.329.204.479.426.955-.068 1.561-1.591-.254-2.7-2.127-4.578-1.65-1.481 1.49-1.511 1.594-.932 3.435.379 1.206 1.12 2.446-.079 3.501-2.696-1.306-5.171-1.164-7.573.706-1.201.935-2.123.524-3.018-.973.191-1.047.817-1.586 1.812-2.044 3.39-1.562 3.596-5.365.512-7.513-.779-.543-1.641-.763-2.521-1.021-1.002-.294-1.213-1.278-.469-1.99.243-.232.584-.358.853-.567 1.692-1.311 3.153-2.76 3.728-4.954.533-2.034-.028-3.757-1.271-5.28-1.073-1.315-2.984-1.713-4.534-1.088-4.506 1.817-6.703 6.081-7.196 6.326-.817.057-1.283-.238-1.579-.906-.325-.732-.672-1.463-1.09-2.145-1.347-2.195-3.82-2.375-5.425-.385-.388.481-.642 1.077-.92 1.638-.333.672-.646 1.346-1.438 1.7-.521-.061-1.073-.155-1.595-.497-.55-1.054.05-1.79.644-2.602 1.138-1.557.976-3.058-.85-4.176-.243-.149-1.319-.648-1.441-.847-.099-.51-.102-.954.425-1.314.871-.328 3.541.93 7.037-3.289 1.033-1.247 1.278-2.693.672-4.169-.58-1.412-1.919-1.671-3.277-1.77-.167-.012-.367.106-.502.048-.611-.263-1.42-.009-1.899-.737-.122-.537.06-.971.549-1.289 2.3-1.498 3.824-2.46 4.964-5.27 1.613-3.976-2.717-7.507-6.312-5.197-.848.545-1.593 1.276-2.555 1.523-1.092-.258-1.216-1.004-1.146-1.877.183-2.263-.33-4.34-1.809-6.094-1.409-1.671-3.088-2.576-5.424-2.079-1.115.237-1.723 1.061-2.465 1.386-1.102 2-1.197 3.985-1.011 6.01.132 1.434.566 2.795 1.061 4.132.286.773.356 1.436-.324 1.931-.741.242-1.335-.107-1.913-.289-1.178-.371-2.271-.168-3.357.24-1.521.57-2.158 1.817-1.802 3.403.485 2.16 1.837 3.612 3.735 4.636.572.308 1.339.41 1.507 1.319-1.126.794-2.299.352-3.522.205-.191.115-.423.284-.678.406-2.034.978-2.346 2.164-1.111 4.076.765 1.184 1.918 1.71 3.201 2.099.609.185 1.443.016 1.7.887-.574.783-.576.778-1.561 1.161-1.149.447-2.236.963-2.391 2.416.065.479.857 1.428.472 1.724-2.086.819-2.086.819-3.751 2.508-.992 1.007-.992 1.007-2.248.16-.316-1.263.049-1.473.747-2.087.941-.827 2.02-1.505 2.647-2.652 1.461-2.67 1.075-5.9-2.419-7.14-.969-.344-1.956-.618-3.019-.546-1.086.074-2.171.02-3.153-.574-.285-.975-.026-1.807.558-2.582 2.114-2.805 3.31-5.992 3.841-9.438.83-5.388-3.298-8.602-7.476-7.926-3.409.552-5.728 2.346-7.365 5.249-1.469 2.596-1.094 5.492-2.655 6.341zM204.573 56.28c.186 3.804-3.046 7.334-7.253 7.268-4.434-.069-7.335-3.4-7.247-7.495.077-3.588 2.866-7.069 7.303-7.066 3.832.002 7.513 3.216 7.197 7.293zm-77.383 64.508c-.504-1.248.946-3.701-2.129-4.063-.529-.062-1.017-.137-1.422-.531-.156-.449-.135-.877.231-1.35.799-.048 1.682.03 2.491-.178 1.371-.353 2.774-.652 3.945-1.591.889-.713 1.926-1.212 3.116-1.198.439.252.446.652.374 1.061-.17.971-1.274 2.261-.07 3.147.87.64 1.623.142 2.327-.404.4-.31.806-.411 1.29-.049-.225 1.926-1.506 4.181 1.316 5.307 1.413-.425 2.035-1.536 2.675-2.592.815.003.921.5.759 1.04-.515 1.718-.072 3.211 1.191 4.735-3.033.283-5.803.963-8.639.992-.238-.905.374-1.226.776-1.693.878-1.02 1.238-2.157.67-3.486-.557-1.302-1.743-2.034-3.148-1.735-1.474.313-2.813.921-3.812 2.137-.799.974-.837.958-1.941.451zm18.783 3.325c.829-1.191.94-2.301 1.885-2.967 1.482.006 1.598 1.513 2.782 2.378-1.685.176-3.038.083-4.667.589zm52.407 146.803v-12.762l26.195-1.044c-.514 4.237-.194 8.448-.826 12.685-3.947 1.078-19.621 1.121-25.369 1.121z"/></svg>