<svg id="Слой_1" xmlns="http://www.w3.org/2000/svg" viewBox="0 0 300 300"><path d="M46.795 139.079a5.84 5.84 0 0 0 3.714 1.311c1.593 0 3.176-.629 4.297-1.851.879-.959 21.371-23.719 5.833-42.213-8.619-10.26-2.255-16.222-.862-17.334 2.407-1.852 2.799-5.202.857-7.509-1.956-2.326-5.535-2.7-7.984-.855-5.953 4.487-13.81 17.024-.908 32.38 9.676 11.512-5.381 28.339-5.528 28.496-2.043 2.246-1.793 5.64.581 7.575zm49.711-21.485a5.841 5.841 0 0 0 3.714 1.312c1.593 0 3.176-.629 4.297-1.852.879-.959 21.371-23.719 5.834-42.213-8.619-10.26-2.255-16.221-.863-17.334 2.408-1.852 2.799-5.202.857-7.509-1.956-2.327-5.529-2.7-7.984-.855-5.953 4.487-13.81 17.023-.907 32.38 9.676 11.512-5.381 28.339-5.528 28.499-2.044 2.239-1.795 5.636.58 7.572zm44.007 0a5.841 5.841 0 0 0 3.714 1.312c1.593 0 3.176-.629 4.294-1.852.882-.959 21.374-23.719 5.836-42.213-8.618-10.26-2.25-16.221-.865-17.334 2.41-1.852 2.802-5.202.86-7.509-1.956-2.327-5.534-2.7-7.983-.855-5.954 4.487-13.81 17.023-.907 32.38 9.673 11.512-5.382 28.339-5.528 28.499-2.045 2.239-1.791 5.636.579 7.572zm115.544-42.211c17.26 0 31.246 13.227 31.246 29.543 0 16.319-13.987 29.541-31.246 29.541-17.261 0-31.247-13.223-31.247-29.541 0-16.316 13.986-29.543 31.247-29.543z"/><path d="M37.092 241.236s51.403 10.751 107.249 10.751c57.055 0 118.579-10.751 118.579-10.751 18.797 0 34.087-14.451 34.087-32.228V178.43c0-6.152-6.414-10.994-16.516-14.827a26.028 26.028 0 0 1-.816 5.711c-.421 1.626-.882 3.2-1.359 4.741 3.944 1.543 6.38 3.022 7.185 4.323-.105.194-.299.394-.477.598-.189.209-.344.42-.61.64-.3.231-.71.487-1.099.733-.355.226-.666.447-1.087.683-.477.253-1.077.514-1.642.777-.511.241-.977.47-1.559.703-.056.02-.128.046-.183.072-1.277.4-2.636.87-4.184 1.51-1.353.561-2.829 1.07-4.272 1.586 2.552-5.346 5.06-11.698 6.913-18.854 3.74-14.404-8.749-27.287-23.191-28.1-3.046-.174-6.37.142-9.776.714-5.692-3.72-17.044-9.09-38.209-12.784 4.078-8.435 6.591-20.035-2.047-30.327-8.622-10.26-2.258-16.222-.865-17.334 2.408-1.852 2.796-5.202.854-7.509-1.952-2.327-5.525-2.702-7.978-.855-5.959 4.487-13.815 17.023-.91 32.38 5.881 6.992 2.624 15.933-.866 21.923-11.351-1.384-24.856-2.306-41.092-2.412h-.08c-6.237 0-11.315 4.766-11.357 10.678-.039 5.928 5.013 10.774 11.29 10.807 31.679.198 51.446 3.644 63.353 7.044-2.74 1.947-5.298 4.012-7.379 6.231a5577.764 5577.764 0 0 0-10.237 10.942c-25.637 3.798-41.39-1.06-41.823-1.201-5.881-2.003-12.355.871-14.505 6.414-2.158 5.572.871 11.745 6.763 13.78.804.279 11.129 3.668 28.378 3.956a85.812 85.812 0 0 0-4.899 5.959 480.104 480.104 0 0 1-10.324-.127c-.544-.062-1.099-.119-1.631-.187-3.548.047-7.07.1-10.758.1-5.279 0-10.408-.047-15.396-.131-1.875-.037-3.626-.1-5.459-.148-3.035-.072-6.109-.141-9.027-.241-2.644-.098-5.138-.23-7.681-.346-1.961-.094-3.989-.168-5.892-.268a665.898 665.898 0 0 1-9.556-.614c-1.01-.067-2.084-.125-3.08-.197-48.892-3.621-76.435-11.473-79.456-16.546 4.039-6.781 51.722-18.495 135.542-18.495 16.732 0 31.962.482 45.76 1.28l5.814-6.223c-11.341-2.243-28.029-4.258-51.683-4.405a17.658 17.658 0 0 1-6.674-1.343C114.107 149.622 3.01 152.76 3.01 178.43v30.577c-.005 17.778 15.282 32.229 34.082 32.229z"/></svg>