<svg id="Слой_1" xmlns="http://www.w3.org/2000/svg" viewBox="0 0 300 300"><path d="M32.573 99.682c-.092-10.946 5.763-21.319 15.589-26.89l13.57-7.693c14.969-8.486 34.161-3.446 42.794 11.236 8.633 14.683 3.482 33.525-11.487 42.009l-33.926 19.234c-11.224 6.363-15.089 20.496-8.615 31.508 2.163 3.678.878 8.376-2.872 10.501-3.751 2.128-8.536.871-10.699-2.808l-15.653-26.623c-8.85-15.053-7.487-37.076 11.299-50.474zm15.643 97.319l13.571-7.693 23.48 39.935-13.57 7.695c-7.495 4.248-17.075 1.733-21.397-5.619l-7.826-13.311c-4.324-7.352-1.753-16.757 5.742-21.007zm135.798-76.856l23.504 39.976-113.205 63.992-23.48-39.933 113.181-64.035zm9.951-5.641l58.711-33.413c7.496-4.25 17.075-1.735 21.397 5.618l7.827 13.312c4.322 7.351 1.751 16.755-5.744 21.004l-58.768 33.317-23.423-39.838z"/></svg>