<svg id="Слой_1" xmlns="http://www.w3.org/2000/svg" viewBox="0 0 300 300"><style>.st0{fill-rule:evenodd;clip-rule:evenodd}</style><path class="st0" d="M210.036 99.412a78.816 78.816 0 0 0-10.171-9.829l62.598-59.393a4.346 4.346 0 0 1 6.011.038 4.258 4.258 0 0 1 .156 5.959l-58.594 63.225zm11.374 50.983c0 38.865-31.768 70.382-70.974 70.382S79.44 189.265 79.44 150.395c0-38.88 31.79-70.397 70.996-70.397 39.207-.001 70.974 31.517 70.974 70.397zm-70.964-40.05c-22.4 0-40.554 17.983-40.554 40.218 0 22.225 18.153 40.214 40.554 40.214 22.414 0 40.576-17.993 40.576-40.214 0-22.235-18.161-40.218-40.576-40.218zm19.035 51.88c0 9.678-8.26 16.207-19.979 16.207-12.813 0-19.463-7.357-19.463-14.955 0-6.693 3.96-11.285 10.28-14.049v-.25c-5.74-2.745-8.359-7.27-8.359-12.028 0-8.859 7.937-14.877 18.299-14.877 11.899 0 17.202 7.02 17.202 13.698 0 4.593-2.448 9.361-8.43 12.288v.25c5.983 2.262 10.45 6.938 10.45 13.716zm-19.725-32.855c-5.227 0-7.926 3.427-7.926 7.361 0 4.439 3.709 7.106 8.942 8.527 3.792-1.089 6.823-4.089 6.823-8.191-.001-3.76-2.283-7.697-7.839-7.697zm-1.009 23.481c-5.13 1.425-8.09 5.031-8.09 9.447-.17 4.68 3.377 8.865 9.19 8.865 5.465 0 9.098-3.429 9.098-8.105-.001-5.518-4.051-8.527-10.198-10.207zm-60.424-50.906L29.201 40.646a4.261 4.261 0 0 1 .037-5.964 4.345 4.345 0 0 1 6.009-.153l62.771 57.23a78.926 78.926 0 0 0-9.695 10.186zm-1.362 94.758c.513.899 7.264 10.873 17.28 16.861l-48.945 52.813a14.554 14.554 0 0 1-10.627 4.619 14.416 14.416 0 0 1-10.217-4.198c-2.769-2.747-4.272-6.398-4.232-10.282.04-3.884 1.617-7.503 4.442-10.193l52.299-49.62zm.015-.012l-.015.012c-.047-.082-.046-.094.015-.012zm126.358.204l53.994 49.229c2.924 2.673 4.576 6.311 4.658 10.249.08 3.941-1.422 7.643-4.23 10.431a14.404 14.404 0 0 1-10.211 4.195h-.154c-3.915-.041-7.565-1.606-10.276-4.41l-51.037-52.917c9.975-7.495 17.962-17.715 17.256-16.777z"/></svg>