<svg id="Слой_1" xmlns="http://www.w3.org/2000/svg" viewBox="0 0 300 300"><path d="M250.276 239.207l.078-.033s-53.994-54.76-59.288-60.058c-3.286-.959-22.49-9.409-22.832-25.271 8.2-9.386 20.119-18.401 37.719-18.579a.623.623 0 0 1 .17-.023c7.959.217 15.996-2.424 22.398-8.007.449-.395 1.495-1.463 1.495-1.463l43.981-55.389-5.278-5.298-53.808 56.923-6.347-6.367 55.373-55.333-4.649-4.624-55.707 55.676-5.27-5.266 55.714-55.677-5.122-5.111-55.714 55.669-6.239-6.227 57.505-53.91-4.828-4.825-53.002 41.257s-1.922 1.618-2.589 2.292c-7.269 7.264-10.393 17.123-9.354 26.617-.728 12.043-4.627 20.988-9.687 27.788C66.207 37.385 28.953 47.715 28.953 47.715L26 50.703s66.433 66.566 107.477 107.666a458052.318 458052.318 0 0 1-83.831 83.789l.008.015c-.062.061-.14.084-.21.163-4.959 4.956-4.944 12.994.008 17.943 4.952 4.957 13.012 4.957 17.957.015.078-.076.101-.154.147-.2l.016.015s69.517-69.454 83.839-83.757c7.502 7.512 12.516 12.523 13.501 13.506 6.084 6.11 67.347 67.33 67.347 67.33h.07c0 .071.069.14.139.171 4.945 4.979 13.074 4.979 18.019 0 5.014-4.941 5.014-13.033 0-18.006-.064-.076-.133-.108-.211-.146z"/></svg>