<svg id="Слой_1" xmlns="http://www.w3.org/2000/svg" viewBox="0 0 300 300"><path d="M199.175 117.044l-46.593-46.443a44.468 44.468 0 0 1 .567-4.942l.023-.143c.092-.526.192-1.05.303-1.573l.044-.206c.112-.513.23-1.028.36-1.537l.053-.201c.133-.519.273-1.035.427-1.547l.038-.119a43.472 43.472 0 0 1 2.416-6.244c.053-.109.103-.227.156-.338.177-.361.365-.719.552-1.074.11-.213.219-.426.333-.633.173-.32.353-.63.534-.946.142-.247.285-.495.433-.741a45.17 45.17 0 0 1 1.589-2.444c.198-.279.399-.56.603-.836.177-.245.354-.485.536-.722.229-.299.465-.593.701-.888.173-.213.344-.431.521-.641.276-.328.562-.652.851-.976.151-.172.298-.347.454-.515a44.386 44.386 0 0 1 8.321-7.093 44.192 44.192 0 0 1 5.71-3.176 44.293 44.293 0 0 1 6.029-2.269 44.577 44.577 0 0 1 25.176 0 43.98 43.98 0 0 1 11.739 5.445 44.39 44.39 0 0 1 6.936 5.647c17.267 17.211 17.267 45.113 0 62.32-.475.477-.96.936-1.451 1.383-.169.154-.344.301-.516.451-.324.287-.648.574-.978.849-.212.176-.43.346-.645.518-.294.238-.589.473-.888.7-.24.182-.481.357-.723.534-.279.204-.559.406-.841.599-.263.186-.527.364-.793.537-.264.174-.53.346-.796.517-.287.178-.575.357-.866.533-.243.146-.49.284-.735.426-.317.182-.634.362-.955.536-.206.113-.416.219-.624.325-.363.19-.724.379-1.09.558-.107.05-.215.096-.321.149a44.018 44.018 0 0 1-6.291 2.418c-.035.011-.07.019-.106.031-.518.155-1.04.294-1.563.431-.063.015-.125.033-.188.048-.516.13-1.035.25-1.555.359-.065.016-.131.029-.195.042-.526.108-1.056.213-1.587.303l-.138.025c-.554.089-1.109.175-1.665.249-1.099.141-2.2.254-3.302.314zm33.043 68.579c-7.821-7.798-18.219-12.094-29.28-12.094s-21.461 4.297-29.281 12.09l-64.034 63.826c-5.281 5.262-12.301 8.16-19.769 8.16s-14.489-2.899-19.774-8.165l-.492-.489c-10.9-10.867-10.9-28.548 0-39.409l17.008-16.951 4.826 4.809a6.726 6.726 0 0 0 4.758 1.96 6.711 6.711 0 0 0 4.184-1.454l89.652-71.067c-.116-.105-.241-.206-.353-.317L143.07 80.086c-.136-.138-.255-.287-.384-.429L70.87 168.448a6.688 6.688 0 0 0 .481 8.948l5.733 5.713-17.008 16.954c-16.144 16.091-16.144 42.275.005 58.371l.492.489c7.822 7.796 18.22 12.088 29.281 12.088s21.46-4.293 29.28-12.088l64.035-63.823c5.281-5.264 12.301-8.162 19.768-8.162 7.468 0 14.489 2.897 19.77 8.163l17.811 17.751c2.626 2.617 6.884 2.613 9.511 0a6.689 6.689 0 0 0-.001-9.481l-17.81-17.748z"/></svg>