<svg id="Слой_1" xmlns="http://www.w3.org/2000/svg" viewBox="0 0 300 300"><path d="M189.605 264.004H18.992v-15.526a18.505 18.505 0 0 0 11.335 3.868h147.499l11.779 11.658zM92.825 35.993c-9.146 0-16.573 7.249-16.573 16.177 0 5.545 2.854 10.44 7.233 13.364 1.885-5.087 4.934-9.768 8.98-13.716a38.433 38.433 0 0 1 14.051-8.765c-2.993-4.274-8.01-7.06-13.691-7.06zm-4.739 42.389c0 17.041 14.162 30.837 31.595 30.837s31.595-13.822 31.595-30.837c0-17.043-14.162-30.838-31.595-30.838-3.714 0-7.261.621-10.559 1.759-8.952 3.111-16.075 10.035-19.234 18.773a30.418 30.418 0 0 0-1.802 10.306zM70.93 120.933c-7.4 16.014-23.53 56.942-27.964 67.249h55.042a82.319 82.319 0 0 1 4.074-8.441c5.183-9.44 21.368-14.121 17.516-27.294-.027-.107-.083-.216-.11-.352l14.494 13.418c1.081 1 2.383 1.813 3.769 2.325l39.632 14.77c1.33.488 2.716.73 4.074.73 4.6 0 8.924-2.732 10.642-7.168 2.245-5.734-.693-12.173-6.596-14.364l-35.031-13.066a13.864 13.864 0 0 1-4.406-2.704l-30.875-28.593c-1.302-1.216-2.993-2-4.767-2.57a19.26 19.26 0 0 0-1.302-.379c-.471-.135-.97-.269-1.469-.378-7.705-2.002-16.268-3.706-24.194-3.031-2.606.217-5.46.866-7.678 2.355-2.551 1.785-3.604 4.814-4.851 7.493zM30.327 245.585h150.381l14.412 14.254a14.308 14.308 0 0 0 4.739 3.112 14.813 14.813 0 0 0 5.432 1.053h61.416c7.981 0 14.411-6.383 14.301-14.174-.138-7.654-6.679-13.714-14.522-13.714h-55.209l-37.525-37.169c-2.91-2.895-4.629-4.084-9.839-4.084-8.98 0-133.586.08-133.586.08-6.263 0-11.335 4.951-11.335 11.066v28.511c0 6.114 5.072 11.065 11.335 11.065zm230.061-51.02c0-17.664-14.688-32.002-32.786-32.002s-32.787 14.338-32.787 32.002 14.689 32.001 32.787 32.001 32.786-14.31 32.786-32.001z"/></svg>