<svg id="Слой_1" xmlns="http://www.w3.org/2000/svg" viewBox="0 0 300 300"><path d="M208.575 130.104c-.902 0-1.826.138-2.751.409l-10.452 3.066-10.851-28.134c-3.075-7.973-12.162-14.455-20.259-14.455H62.698c-8.096 0-17.183 6.482-20.257 14.455l-10.837 28.093-10.323-3.028a9.843 9.843 0 0 0-2.749-.406c-4.94 0-8.525 4.019-8.525 9.549v6.555c0 6.456 4.938 11.712 11.006 11.712h1.183l-1.751 4.539c-2.856 7.402-5.182 19.939-5.182 27.945v55.89c0 6.455 4.938 11.71 11.006 11.71h14.373c6.069 0 11.006-5.255 11.006-11.71v-13.96H175.31v13.96c0 6.455 4.938 11.71 11.007 11.71h14.372c6.069 0 11.007-5.255 11.007-11.71v-55.887c0-8.007-2.325-20.544-5.182-27.948l-1.752-4.539h1.33c6.069 0 11.007-5.255 11.007-11.712v-6.555c0-5.531-3.586-9.549-8.524-9.549zM39.493 151.559l16.417-42.55c1.839-4.768 7.305-8.668 12.148-8.668h90.846c4.842 0 10.308 3.9 12.148 8.668l16.417 42.55c1.838 4.768-.619 8.668-5.461 8.668H44.955c-4.843 0-7.3-3.9-5.462-8.668zm36.647 53.823c0 2.575-1.982 4.685-4.402 4.685H40.552c-2.421 0-4.403-2.11-4.403-4.685v-15.924c0-2.578 1.982-4.686 4.403-4.686h31.186c2.419 0 4.402 2.109 4.402 4.686v15.924zm114.376 0c0 2.575-1.982 4.685-4.401 4.685h-31.186c-2.419 0-4.401-2.11-4.401-4.685v-15.924c0-2.578 1.982-4.686 4.401-4.686h31.186c2.419 0 4.401 2.109 4.401 4.686v15.924z"/><path d="M276.248 42.008H224.12c-7.591 0-13.766 6.575-13.766 14.651v55.473c0 8.078 6.176 14.651 13.766 14.651h20.926v124.504c0 3.019 2.299 5.464 5.138 5.464 2.837 0 5.137-2.444 5.137-5.464V126.783h20.927c7.591 0 13.766-6.573 13.766-14.648V56.659c0-8.076-6.175-14.651-13.766-14.651zm-11.806 45.997c-2.998 2.871-7.415 4.329-13.125 4.329h-7.548c-.907 0-1.645.787-1.645 1.748v13.547c0 1.47-1.125 2.666-2.508 2.666h-5.717c-1.384 0-2.508-1.197-2.508-2.666V61.166c0-1.473 1.125-2.668 2.508-2.668H248.3c9.54 0 13.101 1.527 16.027 4.171 3.087 2.785 4.651 7.056 4.651 12.69-.001 5.503-1.526 9.756-4.536 12.646z"/><path d="M256.271 69.714c-1.394-1.119-3.858-1.686-7.325-1.686h-5.177c-.907 0-1.645.784-1.645 1.748v11.133c0 .961.738 1.748 1.645 1.748h3.102c1.139 0 2.98-.09 4.103-.2 1.09-.106 4.168-.582 5.297-1.489 1.355-1.093 2.042-2.979 2.042-5.608 0-2.658-.687-4.555-2.042-5.646z"/></svg>