<svg id="Слой_1" xmlns="http://www.w3.org/2000/svg" viewBox="0 0 300 300"><path d="M223.027 164.725a5.839 5.839 0 0 0 3.769 1.362c1.609 0 3.218-.653 4.354-1.923.889-1.004 21.669-24.655 5.917-43.87-8.747-10.658-2.29-16.856-.877-18.013 2.452-1.924 2.846-5.406.877-7.802-1.98-2.415-5.619-2.808-8.1-.885-6.042 4.66-14.007 17.687-.923 33.645 9.81 11.959-5.456 29.446-5.603 29.621-2.08 2.321-1.821 5.844.586 7.865zm49.817-7.877c-2.081 2.333-1.823 5.856.585 7.877a5.837 5.837 0 0 0 3.769 1.362c1.609 0 3.217-.653 4.354-1.923.889-1.004 21.668-24.655 5.917-43.87-8.747-10.658-2.29-16.856-.877-18.013 2.452-1.924 2.846-5.406.877-7.802-1.98-2.415-5.619-2.808-8.1-.885-6.042 4.66-14.007 17.687-.923 33.645 9.811 11.959-5.456 29.447-5.602 29.609zM66.478 93.587c-2.489-1.916-6.117-1.523-8.1.886-1.969 2.395-1.572 5.878.863 7.802 1.417 1.156 7.864 7.355-.863 18.014-15.748 19.219 5.017 42.871 5.915 43.869 1.136 1.275 2.748 1.924 4.356 1.924a5.864 5.864 0 0 0 3.766-1.364c2.408-2.016 2.666-5.548.588-7.872-.155-.175-15.413-17.659-5.605-29.621 13.076-15.95 5.11-28.976-.92-33.638zm-52.587 70.577c1.137 1.275 2.748 1.923 4.357 1.923a5.858 5.858 0 0 0 3.766-1.362c2.407-2.021 2.667-5.544.588-7.877-.155-.162-15.413-17.65-5.606-29.614 13.075-15.959 5.11-28.985-.92-33.646-2.49-1.916-6.118-1.523-8.1.886-1.969 2.395-1.572 5.878.864 7.802 1.417 1.156 7.864 7.355-.864 18.014-15.753 19.219 5.018 42.871 5.915 43.874zM149.644 41.988c16.288 0 29.49 12.796 29.49 28.58 0 15.783-13.202 28.576-29.49 28.576s-29.493-12.793-29.493-28.576c0-15.783 13.205-28.58 29.493-28.58z"/><path d="M17.269 231.745h87.008c6.36 0 11.52-4.999 11.52-11.164v-21.095c0-.168.045-.326.045-.491-.034-9.222 7.707-16.722 17.236-16.722 7.895 0 14.504 5.2 16.56 12.226 2.045-7.026 8.651-12.226 16.564-12.226 9.512 0 17.252 7.501 17.269 16.722-.039.165.012.323.012.491v21.096c0 6.164 5.153 11.164 11.521 11.164h87.719c9.552 0 17.281-7.326 17.281-16.375 0-9.05-7.729-16.376-17.281-16.376h-65.837c2.667-3.205 3.431-7.696 1.53-11.675l-30.961-64.889c-.529-1.101-1.249-2.028-2.047-2.872-3.162-10.85-14.367-15.862-27.82-15.862h-15.9c-13.005 0-23.876 4.72-27.439 14.833-1.297 1.034-2.396 2.32-3.153 3.9l-30.963 64.89c-1.899 3.979-1.134 8.476 1.533 11.675H17.269c-9.54 0-17.28 7.326-17.28 16.376-.001 9.048 7.74 16.374 17.28 16.374zm169.116-36.843v-21.516l11.121 23.297c.4.862.967 1.604 1.552 2.312h-13.039c.208-1.341.366-2.698.366-4.093zm-85.335 1.781l11.836-24.812v23.031c0 1.395.158 2.758.368 4.093h-13.77c.599-.708 1.15-1.45 1.566-2.312z"/><path d="M121.563 199.049v47.783c0 6.16 5.156 11.164 11.521 11.164 6.359 0 11.52-5.004 11.52-11.164v-47.783c0-6.164-5.161-11.164-11.52-11.164-6.372 0-11.521 5-11.521 11.164zm33.121 0v47.783c0 6.16 5.156 11.164 11.518 11.164 6.362 0 11.52-5.004 11.52-11.164v-47.783c0-6.164-5.158-11.164-11.52-11.164-6.369 0-11.518 5-11.518 11.164z"/></svg>