<svg id="Слой_1" xmlns="http://www.w3.org/2000/svg" viewBox="0 0 300 300"><path d="M43.899 245.8c5.406 5.573 12.811 13.21 26.818 13.21h.008c14.011 0 21.416-7.638 26.821-13.21 4.854-5.005 7.239-7.223 12.795-7.227h.016c5.571 0 7.953 2.215 12.811 7.227 5.407 5.572 12.811 13.21 26.82 13.21h.008c14.01 0 21.413-7.638 26.82-13.21 4.854-5.008 7.236-7.224 12.795-7.227h.018c5.57 0 7.951 2.215 12.81 7.227 5.407 5.572 12.811 13.21 26.82 13.21.001-.003.007 0 .01 0 14.01-.003 21.415-7.638 26.82-13.213 3.868-3.991 3.867-10.46-.001-14.453-3.872-3.991-10.144-3.988-14.015 0-4.856 5.012-7.236 7.228-12.805 7.228h-.003c-5.57 0-7.952-2.216-12.81-7.228-5.402-5.565-12.8-13.192-26.787-13.205-.015 0-.025-.003-.039-.003-14.014 0-21.419 7.636-26.826 13.207-4.857 5.012-7.239 7.228-12.807 7.228h-.003c-5.568 0-7.951-2.216-12.809-7.228-5.401-5.565-12.797-13.192-26.784-13.205-.015 0-.027-.003-.04-.003-14.013 0-21.418 7.636-26.826 13.207-4.856 5.012-7.239 7.228-12.81 7.228h-.004c-5.565 0-7.948-2.216-12.807-7.228h-.003c-3.869-3.991-10.142-3.988-14.012 0-3.87 3.997-3.868 10.468.001 14.458z"/><path d="M216.052 61.451c12.748 0 23.12 10.697 23.12 23.842 0 5.643 4.436 10.219 9.909 10.219 5.473 0 9.908-4.576 9.908-10.219 0-24.415-19.262-44.281-42.938-44.281-13.268 0-25.147 6.239-33.03 16.024-7.883-9.785-19.762-16.024-33.03-16.024-23.677 0-42.938 19.866-42.938 44.281v92.12c-11.903 1.088-18.555 7.938-23.52 13.06-4.856 5.008-7.239 7.223-12.811 7.223h-.004c-5.565 0-7.948-2.215-12.807-7.223l-.002-.003c-3.869-3.991-10.142-3.988-14.012.003-3.869 3.99-3.868 10.462.002 14.451 5.405 5.575 12.811 13.212 26.817 13.212h.008c14.01 0 21.416-7.637 26.822-13.213 4.853-5.005 7.238-7.22 12.795-7.224h.016c5.571 0 7.953 2.216 12.811 7.224 5.407 5.576 12.811 13.21 26.82 13.21h.008c14.009 0 21.413-7.637 26.82-13.21 4.855-5.005 7.238-7.22 12.796-7.224h.018c5.569 0 7.951 2.216 12.81 7.224 5.407 5.576 12.81 13.21 26.82 13.21h.01c14.01 0 21.415-7.637 26.82-13.21 3.868-3.991 3.867-10.463-.001-14.453-3.871-3.988-10.144-3.988-14.015.003-4.856 5.008-7.236 7.223-12.805 7.223h-.003c-5.569 0-7.953-2.215-12.81-7.226-4.964-5.119-11.619-11.969-23.523-13.058v-92.12c-.002-13.144 10.37-23.841 23.119-23.841zm-42.939 120.251c-4.341 2.618-7.582 5.956-10.312 8.772-4.857 5.008-7.239 7.223-12.808 7.223h-.002c-5.568.003-7.952-2.214-12.81-7.223-2.729-2.816-5.969-6.154-10.311-8.772v-18.068h46.242v18.068zm0-38.503h-46.242V122.76h46.242v20.439zm0-40.873h-46.242V85.294c0-13.146 10.371-23.842 23.12-23.842s23.122 10.697 23.122 23.842v17.032z"/></svg>