<svg id="Слой_1" xmlns="http://www.w3.org/2000/svg" viewBox="0 0 300 300"><path d="M57.551 141.723c-5.712 5.628-5.712 14.783 0 20.466 5.712 5.626 15.006 5.626 20.774 0 39.533-38.943 103.87-38.943 143.402 0a14.751 14.751 0 0 0 20.719 0c5.712-5.628 5.712-14.783 0-20.466-50.956-50.249-133.94-50.249-184.895 0z"/><path d="M97.195 180.776c-5.711 5.626-5.711 14.783 0 20.464 5.712 5.628 15.007 5.628 20.774 0 17.638-17.43 46.42-17.43 64.058 0a14.752 14.752 0 0 0 20.719 0 14.296 14.296 0 0 0 0-20.409c-29.062-28.737-76.434-28.737-105.551-.055zm52.803 32.711c10.793 0 19.542 8.618 19.542 19.25 0 10.631-8.749 19.25-19.542 19.25-10.793 0-19.543-8.618-19.543-19.25s8.75-19.25 19.543-19.25zM282.705 102.01c-73.185-72.039-192.229-72.039-265.414 0-5.712 5.625-5.712 14.782 0 20.463 5.711 5.626 15.006 5.626 20.774 0 61.706-60.84 162.16-60.84 223.922 0a14.75 14.75 0 0 0 10.359 4.248 14.75 14.75 0 0 0 10.359-4.248c5.712-5.626 5.712-14.782 0-20.463z"/></svg>