<svg id="Слой_1" xmlns="http://www.w3.org/2000/svg" viewBox="0 0 300 300"><path d="M64.245 147.564c-.684-.144-1.409-.284-2.128-.449-3.097-.709-6.138-1.56-9.028-2.939-4.212-2.01-8.226-4.381-12.319-6.607-.987-.536-1.91-1.297-2.363-2.359-1.413-3.308-.136-5.51 3.314-6.357 1.946-.478 3.855-1.108 5.775-1.667-.13-.711-.684-.801-1.088-.994-4.641-2.228-8.335-5.625-11.808-9.342-1.99-2.129-3.779-4.428-5.796-6.531-1.438-1.499-1.819-4.486-.758-6.193.548-.882 1.505-1.397 2.531-1.574 1.009-.173 2.046-.151 2.988.368.722.398 1.514.538 2.299.736 2.587.653 5.133 1.518 7.75 1.994 4.008.728 8.013.579 12.017-.404 4.142-1.017 7.578-3.241 10.896-5.749.801-.606 1.638-1.178 2.366-1.864 1.664-1.567 3.271-3.194 4.861-4.758-.096-.546-.463-.636-.792-.82-3.849-2.157-7.561-4.525-11.058-7.222-1.402-1.081-2.166-2.55-2.369-4.262-.178-1.498.301-2.861 1.314-4.007 1.265-1.432 2.969-2.043 4.715-2.66 1.979-.699 4.047-.64 6.067-.941 5.903-.877 10.929-3.35 14.99-7.755 1.97-2.137 3.758-4.418 5.486-6.75 2.347-3.167 4.818-6.237 7.869-8.757 2.151-1.776 4.426-3.374 6.972-4.603 5.3-2.558 10.892-3.356 16.687-3.013 2.263.134 4.458.78 6.626 1.409a41.18 41.18 0 0 1 10.931 4.975c3.6 2.324 6.882 4.999 9.706 8.207 2.477 2.815 4.616 5.844 6.175 9.315 1.544 3.437 2.528 6.957 2.813 10.695.37 4.843-1.952 10.716-6.846 13.074-.627.302-1.199.716-1.802 1.068-1.681.981-1.99 1.993-1.113 3.749.476.953.987 1.874 1.205 2.948.768 3.783-.717 6.77-3.395 9.207-1.963 1.787-4.309 2.932-7.01 3.358-1.683.265-2.521 1.601-2.738 3.717-.104 1.013-.064 2.017-.42 3.031-.985 2.815-3.049 3.991-5.85 4.239-.676.06-1.426-.128-2.05.521.039.892.501 1.749.923 2.469 1.15 1.96 2.647 3.735 4.441 5.107 2.043 1.563 4.405 2.645 6.802 3.634 3.03 1.25 5.904 2.781 8.254 5.159 3.57 3.612 4.56 7.923 3.444 12.758-.462 2.001-1.47 3.81-2.678 5.471-2.206 3.032-5.028 5.446-7.919 7.794-2.049 1.665-4.135 3.307-5.823 5.359-1.313 1.597-1.87 3.53-1.993 5.554a409.532 409.532 0 0 0-.51 11.021c-.029.852.008 1.739.295 2.569.436 1.264 1.439 1.617 2.544.843.79-.553 1.507-1.21 2.251-1.828 3.285-2.732 6.661-5.346 10.049-7.948 3.2-2.458 6.377-4.947 9.565-7.421 2.211-1.716 4.416-3.44 6.638-5.141 3.462-2.649 6.947-5.267 10.347-7.998 2.053-1.649 4.2-3.184 6.332-4.731 2.313-1.679 4.482-3.554 6.921-5.058 1.962-1.21 3.974-2.297 6.131-3.156 1.856-.74 3.748-1.193 5.694-1.573 2.274-.443 4.505-.339 6.763.018 3.473.548 6.612 1.961 9.44 3.948 2.156 1.515 4.061 3.367 5.732 5.458 2.719 3.402 4.821 7.197 7.189 10.824 1.967 3.013 3.954 6.02 6.103 8.915 1.502 2.023 2.875 4.141 4.365 6.173 1.107 1.51 2.309 2.951 3.47 4.422 1.065 1.349 2.149 2.683 3.198 4.044 4.118 5.346 8.548 10.43 13.02 15.476 3.74 4.22 7.528 8.396 11.456 12.445 2.643 2.724 5.128 5.603 7.789 8.309 2.591 2.635 5.339 5.114 7.972 7.708 1.746 1.72 3.021 3.738 3.604 6.167 1.213 5.053-1.867 8.933-6.185 10.111-2.397.654-4.721.202-6.958-.667-3.004-1.167-5.938-2.521-8.956-3.649-2.81-1.05-5.74-1.505-8.761-1.179-2.679.29-5.35.676-8.058.637-2.709-.039-5.016-1.089-7.068-2.764-1.557-1.271-2.796-2.778-3.583-4.674-.833-2.007-.871-3.959-.028-5.945.357-.842.678-1.702 1.081-2.521.811-1.647.128-2.914-1.018-4.021-1.257-1.214-2.815-2-4.406-2.65-4.948-2.019-9.664-4.427-14.132-7.394-4.54-3.015-8.287-6.826-11.925-10.801-2.659-2.905-4.648-6.279-6.829-9.522-.775-1.153-1.445-2.392-2.472-3.36-1.522-1.435-2.98-1.385-4.367.046-1.632 1.684-2.627 3.776-3.892 5.689a64.946 64.946 0 0 1-4.087 5.557c-1.647 1.995-3.187 4.078-4.809 6.094-3.443 4.279-7.039 8.429-10.595 12.614-2.853 3.358-5.848 6.582-8.838 9.811-2.598 2.806-5.332 5.486-7.982 8.245-1.383 1.441-2.78 2.877-4.051 4.414-1.836 2.221-4.209 3.891-6.074 6.076-.307.36-.751.613-1.155.88-1.941 1.281-3.911 2.519-5.826 3.837a8.697 8.697 0 0 1-3.248 1.37c-2.963.611-5.916 1.27-8.876 1.896-.42.089-.856.135-1.286.138-2.221.016-4.446.086-6.664 0-5.122-.2-10.027-1.343-14.378-4.131-3.891-2.494-7.187-5.621-9.579-9.68-2.984-5.062-4.399-10.494-4.395-16.333.002-2.11-.201-4.253.096-6.323.358-2.498.786-5.002 1.467-7.459 1.138-4.107 2.678-8.032 4.521-11.873 1.52-3.166 3.069-6.354 3.445-9.944.22-2.106.332-4.214.069-6.305-.544-4.331-1.12-8.661-1.833-12.966-.412-2.491-.969-4.973-1.975-7.318-.303-.706-.617-1.402-1.659-1.508-.485.097-.882.512-1.111 1.092-1.271 3.209-3.096 6.112-5.014 8.953-1.351 2.002-2.6 4.064-3.864 6.118-1.481 2.407-2.904 4.85-4.405 7.245-4.242 6.771-8.202 13.719-12.978 20.154-2.045 2.755-4.057 5.538-6.186 8.225-1.844 2.327-3.497 4.733-4.828 7.398-1.425 2.852-1.711 5.855-1.783 8.957-.051 2.165.531 4.292.285 6.456-.452 3.983-1.95 7.455-5.612 9.409-3.172 1.693-6.483 1.585-9.659-.324-1.402-.843-2.579-1.954-3.681-3.105-1.783-1.862-3.818-2.052-6.096-1.346-2.056.637-3.98 1.598-5.9 2.548-2.62 1.297-5.35 1.966-8.274 1.641-3.55-.394-6.223-2.2-7.566-5.483-.938-2.293-.816-4.787.368-7.052 1.173-2.243 2.956-3.922 5.132-5.239 2.807-1.699 5.767-3.078 8.811-4.255 3.424-1.324 5.68-3.819 7.402-6.902 1.529-2.737 2.74-5.622 3.982-8.501 2.175-5.043 3.913-10.24 5.695-15.421 1.192-3.467 2.249-6.984 3.347-10.483 1.7-5.416 4.248-10.411 7.242-15.189 2.799-4.467 5.717-8.86 8.581-13.287a2.92 2.92 0 0 0 .239-.421c.845-1.938 2.009-3.675 3.325-5.32.166-.207.296-.448.413-.687.04-.082-.009-.207-.027-.434z"/></svg>